<svg width="11" height="13" viewBox="0 0 11 13" fill="none" xmlns="http://www.w3.org/2000/svg">
<path d="M2.62006 3.60214V2.5996C2.62006 1.16796 3.72916 0 5.10683 0C6.4845 0 7.5936 1.16796 7.5936 2.5996V3.60214H9.31246C9.3912 3.6022 9.467 3.63233 9.52459 3.68646C9.58218 3.7406 9.61727 3.81471 9.62281 3.89388L10.2137 12.6662C10.2189 12.749 10.1914 12.8306 10.1371 12.8931C10.0829 12.9557 10.0064 12.9941 9.9242 13H0.310349C0.228039 13 0.149101 12.967 0.090899 12.9084C0.0326973 12.8497 0 12.7702 0 12.6872V12.6662L0.590857 3.89388C0.596151 3.81454 0.63114 3.74017 0.688752 3.68583C0.746363 3.63148 0.822299 3.60122 0.901206 3.60114L2.62006 3.60214ZM3.5531 3.60214H6.66156V2.5996C6.66156 1.67826 5.96527 0.939384 5.10683 0.939384C4.2484 0.939384 3.5531 1.67826 3.5531 2.5996V3.60214ZM0.975809 12.0616H9.23785L8.73254 4.54253H1.48212L0.975809 12.0616Z" fill="white"/>
</svg>
