<svg width="12" height="15" viewBox="0 0 12 15" fill="none" xmlns="http://www.w3.org/2000/svg">
<path d="M5.97416 7.37897C7.754 7.37897 9.19685 5.93613 9.19685 4.15628C9.19685 2.37644 7.754 0.933594 5.97416 0.933594C4.19431 0.933594 2.75146 2.37644 2.75146 4.15628C2.75146 5.93613 4.19431 7.37897 5.97416 7.37897Z" stroke="white" stroke-width="0.928893" stroke-linecap="round" stroke-linejoin="round"/>
<path fill-rule="evenodd" clip-rule="evenodd" d="M0.862315 11.8614C0.86146 11.6348 0.912128 11.4111 1.0105 11.207C1.31919 10.5896 2.18969 10.2624 2.91202 10.1142C3.43297 10.0031 3.96111 9.92878 4.49251 9.89197C5.47636 9.80554 6.46589 9.80554 7.44975 9.89197C7.9811 9.92921 8.50921 10.0035 9.03023 10.1142C9.75256 10.2624 10.6231 10.5587 10.9318 11.207C11.1296 11.623 11.1296 12.106 10.9318 12.522C10.6231 13.1702 9.75256 13.4666 9.03023 13.6086C8.5099 13.7244 7.98157 13.8007 7.44975 13.837C6.64897 13.9049 5.84446 13.9173 5.04197 13.8741C4.85676 13.8741 4.67772 13.8741 4.49251 13.837C3.96267 13.8012 3.43637 13.7248 2.91819 13.6086C2.18969 13.4666 1.32536 13.1702 1.0105 12.522C0.912631 12.3155 0.862013 12.0899 0.862315 11.8614Z" stroke="white" stroke-width="0.928893" stroke-linecap="round" stroke-linejoin="round"/>
</svg>
